<svg id="Capa_1" data-name="Capa 1" xmlns="http://www.w3.org/2000/svg" xmlns:xlink="http://www.w3.org/1999/xlink" viewBox="0 0 135.12 105.06"><defs><style>.cls-1{fill:none;}.cls-2{fill:#cff7f7;}.cls-3{fill:#618ce0;}.cls-4{fill:#455cb8;}.cls-5{clip-path:url(#clip-path);}.cls-6{fill:#fff;}.cls-7{fill:#cfd1ed;}.cls-8{fill:#6b5e9e;}.cls-9{fill:#40366e;}.cls-10{fill:#ffba69;}.cls-11{fill:#ff803d;}.cls-12{fill:#ada6d1;}.cls-13{fill:#f5f5f5;}.cls-14{fill:#f04773;}.cls-15{fill:#e5e5e5;}.cls-16{fill:#ffa89c;}.cls-17{fill:#261c45;}.cls-18{fill:#ffb099;}.cls-19{fill:#f58282;}.cls-20{fill:#91a3ff;}.cls-21{fill:#6178e0;}</style><clipPath id="clip-path" transform="translate(-151.61 -270.69)"><polygon class="cls-1" points="202.73 264.33 153.12 339.48 212.66 375.74 215.36 375.74 270.03 344.39 265.12 255.49 202.73 264.33"/></clipPath></defs><title>063</title><path class="cls-2" d="M186.52,270.69a22.79,22.79,0,0,0-16.64,7.21l-.53.57c-17.95,19.51-9.47,67.57,28,79.75a71.36,71.36,0,0,0,22.1,3.47c29.32,0,54.72-17.47,56.48-33.42,1.68-15.29-8.14-22.51-24.95-22.51A84.25,84.25,0,0,0,234,307.7a23.23,23.23,0,0,1-4.74.51c-11.86,0-17.5-10.48-20.18-20.21a23.33,23.33,0,0,0-22.56-17.31" transform="translate(-151.61 -270.69)"/><path class="cls-2" d="M246.32,290.46a38,38,0,0,0-6.09.55c-5,.81-6.4,5.25-2.53,8.4a12,12,0,0,0,5.7,2.34,25.36,25.36,0,0,0,4,.35c7.25,0,10.6-3.92,7.21-8.78-1.53-2.19-4.82-2.86-8.28-2.86" transform="translate(-151.61 -270.69)"/><path class="cls-2" d="M156,324c-2,0-3.7,1.5-4.23,4.32a11.88,11.88,0,0,0,.68,6.12c2.08,6,5.38,9.2,8.31,9.2,1.72,0,3.31-1.11,4.45-3.4,1.9-3.83-1.76-9.75-4.85-13.73A5.71,5.71,0,0,0,156,324" transform="translate(-151.61 -270.69)"/><path class="cls-2" d="M283.59,324.78a4.1,4.1,0,0,0-.49,0c-2.2.22-3.21,3.39-3.67,5.78A2.7,2.7,0,0,0,282,334a3.31,3.31,0,0,0,1.24-.25,4.76,4.76,0,0,0,2.17-1.95c2.44-3.78,1.38-7.05-1.8-7.05" transform="translate(-151.61 -270.69)"/><path class="cls-2" d="M264.16,297.74c-2,0-3.29,1.32-3.11,3.58s3.33,3.27,5.72,3.77a3.81,3.81,0,0,0,.74.08,2.67,2.67,0,0,0,2.52-3.82,4.81,4.81,0,0,0-1.91-2.21,7.35,7.35,0,0,0-4-1.4" transform="translate(-151.61 -270.69)"/><path class="cls-2" d="M207.72,271.09a3.09,3.09,0,0,0-2.82,2.17c-.85,2,1.46,4.43,3.34,6a3.17,3.17,0,0,0,2,.76,2.67,2.67,0,0,0,2.63-2.58,4.81,4.81,0,0,0-.68-2.83c-1.28-2.32-3-3.49-4.46-3.49" transform="translate(-151.61 -270.69)"/><polygon class="cls-3" points="21.16 54.19 62.06 77.8 102.97 54.19 62.06 30.57 21.16 54.19"/><polygon class="cls-3" points="102.96 54.19 62.06 77.8 21.16 54.19 21.16 80.76 61.05 105.06 63.75 105.06 102.97 82.57 102.97 54.19 102.96 54.19"/><polygon class="cls-4" points="102.96 54.19 62.06 77.8 62.06 105.06 63.75 105.06 102.97 82.57 102.97 54.19 102.96 54.19"/><g class="cls-5"><path class="cls-4" d="M240.73,316.79l-24.37-14.07L200.26,312l22.36,12.91-2.14,1.23h3.38a2.73,2.73,0,0,0,1.28-.37Z" transform="translate(-151.61 -270.69)"/><path class="cls-4" d="M181.19,322.21l13.67-7.89c.47-.28.94,0,1.39.27l5.15,3.53,14,8.06a1.09,1.09,0,0,1,0,1.88l-13.05,7.53a2.11,2.11,0,0,1-2.17,0l-14.38-8.3-4.9-3.5a.9.9,0,0,1-.19-.87,1,1,0,0,1,.52-.71" transform="translate(-151.61 -270.69)"/><path class="cls-4" d="M239.2,328.74c4.51,0,8.17,1.57,8.17,3.5s-3.66,3.5-8.17,3.5-8.18-1.56-8.18-3.5,3.66-3.5,8.18-3.5" transform="translate(-151.61 -270.69)"/><path class="cls-6" d="M196.86,313l22.23,12.83a2.62,2.62,0,0,0,2.7,0l14.76-8.52v-5.62l-14.76,8.51a2.62,2.62,0,0,1-2.7,0l-22.23-12.83Z" transform="translate(-151.61 -270.69)"/><path class="cls-7" d="M222.91,325.16l13.64-7.88v-5.62l-13.39,7.72a7.89,7.89,0,0,0-.65,1.3v4.08a1.9,1.9,0,0,0,.4.4" transform="translate(-151.61 -270.69)"/><path class="cls-8" d="M236.55,311.66l-24.36-14.07-16.11,9.3,23,13.28a2.62,2.62,0,0,0,2.7,0Z" transform="translate(-151.61 -270.69)"/><path class="cls-9" d="M196.08,311.6v.92l23,13.28a2.64,2.64,0,0,0,2.71,0l14.75-8.52v-5.62l-14.76,8.51a2.62,2.62,0,0,1-2.7,0l-23-13.28v.92l23,13.28a2.64,2.64,0,0,0,2.71,0l13.67-7.89V317l-13.68,7.89a2.62,2.62,0,0,1-2.7,0Z" transform="translate(-151.61 -270.69)"/></g><polygon class="cls-9" points="44.47 40.91 45.25 41.37 45.25 40.46 44.47 40.91"/><g class="cls-5"><path class="cls-10" d="M235.59,306.58l-22.26-12.85a.79.79,0,0,0-.81,0l-12.15,7a1.62,1.62,0,0,0,0,2.81l19,11a2.47,2.47,0,0,0,2.52,0Z" transform="translate(-151.61 -270.69)"/><path class="cls-6" d="M200.37,307.77l19,11a2.47,2.47,0,0,0,2.52,0l13.73-7.93v-4.21l-13.73,7.93a2.47,2.47,0,0,1-2.52,0l-19-10.95Z" transform="translate(-151.61 -270.69)"/><path class="cls-7" d="M223.08,318l12.51-7.22v-4.21l-13.1,7.56v3.24a1.8,1.8,0,0,0,.59.63" transform="translate(-151.61 -270.69)"/><path class="cls-11" d="M199.62,305.49v1a1.36,1.36,0,0,0,.75,1.29l19,11a2.47,2.47,0,0,0,2.52,0l13.73-7.93v-4.21l-13.73,7.93a2.47,2.47,0,0,1-2.52,0l-19-11a1.58,1.58,0,0,1-.81-1.4V303a1.58,1.58,0,0,0,.81,1.41l19,10.95a2.47,2.47,0,0,0,2.52,0l12.6-7.27v2.41l-12.6,7.27a2.47,2.47,0,0,1-2.52,0l-19-11a1.34,1.34,0,0,1-.75-1.29" transform="translate(-151.61 -270.69)"/><path class="cls-11" d="M199.84,305.1l.53-.54v2.23h0a1.59,1.59,0,0,1-.72-.84.77.77,0,0,1,.19-.84" transform="translate(-151.61 -270.69)"/></g><path class="cls-11" d="M206.4,300.6l.18.31,3.62-2.08-.18-.32Zm-.39,1.76.19.32,7.14-4.13-.18-.32Z" transform="translate(-151.61 -270.69)"/><g class="cls-5"><path class="cls-11" d="M201,302.33l13.48-7.65,18.7,11.17-11.74,6.69c-.44.25-1.14-.48-1.29-1-.22.48-1,1.16-1.3.95Z" transform="translate(-151.61 -270.69)"/><path class="cls-6" d="M201,302.33l13.24-7.65,19,10.95-11.94,6.9c-.43.25-1.13-.47-1.29-1-.22.49-1,1.17-1.3,1Z" transform="translate(-151.61 -270.69)"/><path class="cls-12" d="M218.71,312.53a2.17,2.17,0,0,0,2.38.05c-.42,0-1-.6-1.08-1-.22.49-1,1.17-1.3,1" transform="translate(-151.61 -270.69)"/></g><path class="cls-8" d="M222,305.14l.07.12,1.24-.71-.07-.13Zm-1.77.15.07.13,2.41-1.4-.07-.12Zm-9.36-3.35.08.13.75-.44-.07-.12Zm2.35,1.29.07.12,5.4-3.11-.08-.12Zm-.2-2.39.07.13,2-1.16-.07-.12Zm-5.85.79.07.12,4.85-2.79-.08-.13Zm.19-1.27.08.13,3.2-1.85-.08-.12Zm5.15-1.81.07.12,1.57-.9-.08-.13Z" transform="translate(-151.61 -270.69)"/><g class="cls-5"><path class="cls-7" d="M209.84,304.61l-.55-.32a.47.47,0,0,1-.22-.35c-.07-.39.16-.51.5-.73a.52.52,0,0,1,.53,0l.54.31a.67.67,0,0,1,.6,0l.46-.26,3.14,1.79.06.11-.06.11-.27.16.21.11,2.65,1.52,1.36.78,1.82,1a.64.64,0,0,1,.22.24l1.1,1.44c.19.23-.14.31-.35.28l-1.86-.18-.22-.07-1.81-1-1.37-.78-6.16-3.52a.68.68,0,0,1-.31-.49Z" transform="translate(-151.61 -270.69)"/><path class="cls-6" d="M208.15,304.2l-.54-.31a.45.45,0,0,1-.23-.35,1.16,1.16,0,0,1,.5-1.1.5.5,0,0,1,.52-.05l.55.31a.67.67,0,0,1,.6,0l.46-.27,3.32,1.9-.45.27.21.11,2.64,1.52,1.37.78,1.81,1a.66.66,0,0,1,.23.24l1.15,1.5,0,.11a.48.48,0,0,1-.21.46l-.23,0-1.86-.18-.21-.07-1.82-1-1.36-.78-6.17-3.52a.73.73,0,0,1-.31-.49Z" transform="translate(-151.61 -270.69)"/><path class="cls-11" d="M209,304.32l-.55-.31a.51.51,0,0,1-.22-.36,1.17,1.17,0,0,1,.49-1.09.52.52,0,0,1,.53-.05l.54.32-.1.05a1.62,1.62,0,0,0-.69,1.44" transform="translate(-151.61 -270.69)"/><path class="cls-9" d="M218.7,310.27l-9.34-5.39a.67.67,0,0,1-.31-.49,1.6,1.6,0,0,1,.68-1.51.7.7,0,0,1,.73-.07l9.34,5.4a.68.68,0,0,1,.31.49,1.59,1.59,0,0,1-.68,1.5.68.68,0,0,1-.73.07" transform="translate(-151.61 -270.69)"/><path class="cls-8" d="M209.48,303.09a1.27,1.27,0,0,1,.25-.21.7.7,0,0,1,.73-.07l9.34,5.4a.68.68,0,0,1,.31.49,1.51,1.51,0,0,1-.05.63,1,1,0,0,1-.26.21.67.67,0,0,1-.72.07l-9.34-5.39a.67.67,0,0,1-.31-.49,1.29,1.29,0,0,1,0-.64" transform="translate(-151.61 -270.69)"/></g><polygon class="cls-9" points="58.42 32.58 61.98 34.29 62.36 34.16 59 32.22 58.42 32.58"/><g class="cls-5"><path class="cls-8" d="M219.07,308.28a1.59,1.59,0,0,0-.68,1.5.61.61,0,0,0,.53.56l1.86.19H221a.5.5,0,0,0,.21-.46l-.05-.11L220,308.44a.62.62,0,0,0-1-.16" transform="translate(-151.61 -270.69)"/><path class="cls-9" d="M218.42,309.23a1.3,1.3,0,0,0,0,.55.61.61,0,0,0,.53.56l1.86.19h.37l0,0h0v0h0v0h0l0-.2-.05-.11-.09-.12a.55.55,0,0,0-.43.25Z" transform="translate(-151.61 -270.69)"/><path class="cls-10" d="M215.52,308.44a2.21,2.21,0,0,1,.95-2l.15-.08,1.36.79-.15.08a2.22,2.22,0,0,0-1,2Z" transform="translate(-151.61 -270.69)"/><path class="cls-11" d="M215.52,308.44a1.94,1.94,0,0,1,.07-.75l1.36.77a2,2,0,0,0-.07.76Z" transform="translate(-151.61 -270.69)"/><path class="cls-10" d="M210,303.26V303l.7-.4a.31.31,0,0,1,.32,0l2.69,1.55a.32.32,0,0,1,0,.56h0a.29.29,0,0,1-.3,0l-3.22-1.55,0,.14Z" transform="translate(-151.61 -270.69)"/><path class="cls-7" d="M178.09,319.67l13.67-7.89a1.1,1.1,0,0,1,1.39.27l5,5,14,8.06a1,1,0,0,1,.54.94v1.58a1,1,0,0,1-.54.94l-13,7.53a2.11,2.11,0,0,1-2.17,0l-14.87-8.61-4.27-4.7a.93.93,0,0,1-.26-.6v-1.57l0-.27a1,1,0,0,1,.52-.71" transform="translate(-151.61 -270.69)"/><path class="cls-13" d="M178.09,319.67l13.67-7.89a1.13,1.13,0,0,1,1.39.27l5,5,14,8.06a1.09,1.09,0,0,1,0,1.88l-13,7.54a2.16,2.16,0,0,1-2.17,0l-14.38-8.31-4.8-5a.9.9,0,0,1-.19-.87,1,1,0,0,1,.52-.71" transform="translate(-151.61 -270.69)"/><path class="cls-9" d="M182.63,324l12.19-7.13a.78.78,0,0,0,.4-.58.8.8,0,0,0-.2-.68l-2.16-2.42a.82.82,0,0,0-1-.16l-12.17,7a.84.84,0,0,0-.22,1.26l2.14,2.52a.81.81,0,0,0,1,.17" transform="translate(-151.61 -270.69)"/><path class="cls-9" d="M204.36,326.27l-2,1.12a.26.26,0,0,0-.13.23.26.26,0,0,0,.13.22l2,1.13h.26l2-1.13a.25.25,0,0,0,.13-.22.26.26,0,0,0-.13-.23l-2-1.12Z" transform="translate(-151.61 -270.69)"/><path class="cls-9" d="M207.75,324.31l-1.95,1.13a.24.24,0,0,0-.13.22.25.25,0,0,0,.13.23l1.95,1.13H208l2-1.13a.26.26,0,0,0,.13-.23.26.26,0,0,0-.13-.22l-2-1.13Z" transform="translate(-151.61 -270.69)"/><path class="cls-9" d="M197.58,326.27l-2,1.12a.26.26,0,0,0-.13.23.26.26,0,0,0,.13.22l2,1.13h.26l2-1.13a.25.25,0,0,0,.13-.22.26.26,0,0,0-.13-.23l-2-1.12Z" transform="translate(-151.61 -270.69)"/><path class="cls-9" d="M201,324.31,199,325.44a.26.26,0,0,0-.13.22.26.26,0,0,0,.13.23L201,327h.26l2-1.13a.26.26,0,0,0,.13-.23.26.26,0,0,0-.13-.22l-2-1.13Z" transform="translate(-151.61 -270.69)"/><path class="cls-9" d="M194.2,324.31l-2,1.13a.26.26,0,0,0-.13.22.26.26,0,0,0,.13.23l2,1.13h.26l1.95-1.13a.26.26,0,0,0,.13-.23.26.26,0,0,0-.13-.22l-1.95-1.13Z" transform="translate(-151.61 -270.69)"/><path class="cls-9" d="M197.58,322.35l-2,1.13a.26.26,0,0,0-.13.23.26.26,0,0,0,.13.22l2,1.13h.26l2-1.13a.26.26,0,0,0,.13-.22.26.26,0,0,0-.13-.23l-2-1.13Z" transform="translate(-151.61 -270.69)"/><path class="cls-9" d="M190.81,322.35l-2,1.13a.26.26,0,0,0-.13.23.26.26,0,0,0,.13.22l2,1.13h.26l2-1.13a.26.26,0,0,0,.13-.22.26.26,0,0,0-.13-.23l-2-1.13Z" transform="translate(-151.61 -270.69)"/><path class="cls-9" d="M194.2,320.4l-2,1.12a.26.26,0,0,0-.13.23.25.25,0,0,0,.13.22l2,1.13h.26l1.95-1.13a.24.24,0,0,0,.13-.22.25.25,0,0,0-.13-.22l-1.95-1.13Z" transform="translate(-151.61 -270.69)"/><path class="cls-9" d="M197.58,318.44l-2,1.13a.26.26,0,0,0-.13.22.26.26,0,0,0,.13.23l2,1.13h.26l2-1.13a.26.26,0,0,0,.13-.23.26.26,0,0,0-.13-.22l-2-1.13Z" transform="translate(-151.61 -270.69)"/><path class="cls-9" d="M192.24,329.8l2,1.13h.26l1.95-1.13a.26.26,0,0,0,.13-.22.26.26,0,0,0-.13-.23l-1.95-1.13h-.26l-2,1.13a.26.26,0,0,0-.13.22.26.26,0,0,0,.13.23" transform="translate(-151.61 -270.69)"/><path class="cls-9" d="M188.85,327.84l2,1.13h.26l2-1.13a.25.25,0,0,0,.13-.22.26.26,0,0,0-.13-.23l-2-1.12h-.26l-2,1.12a.26.26,0,0,0-.13.23.26.26,0,0,0,.13.22" transform="translate(-151.61 -270.69)"/><path class="cls-9" d="M196.61,330.74l2.41-1.39h0l1.95-1.13h.26l2,1.13a.26.26,0,0,1,.13.23.26.26,0,0,1-.13.22l-2,1.13h0l-1.43.82h0l-1,.56-1,.56h-.26l-2-1.12a.26.26,0,0,1-.13-.23.25.25,0,0,1,.13-.22Z" transform="translate(-151.61 -270.69)"/><path class="cls-14" d="M201,323.11l1.42.82h0l2,1.13h.26l2-1.13a.26.26,0,0,0,.13-.22.26.26,0,0,0-.13-.23l-1-.56-3.39-2-1-.56H201L199,321.52a.26.26,0,0,0-.13.23.25.25,0,0,0,.13.22l2,1.13Z" transform="translate(-151.61 -270.69)"/><path class="cls-9" d="M185.47,325.89l1.95,1.13h.26l1.95-1.13a.25.25,0,0,0,.13-.23.24.24,0,0,0-.13-.22l-1.95-1.13h-.26l-1.95,1.13a.24.24,0,0,0-.13.22.25.25,0,0,0,.13.23" transform="translate(-151.61 -270.69)"/><path class="cls-15" d="M241,315.29c-2.75-.18-1.95,9.24-.59,10.17a1.32,1.32,0,0,0,1,.27c-.07.45-.15.9-.22,1.37,0,0-.05,1.18-.15,3.11,1.7-1.49,2.76-14.75,0-14.92" transform="translate(-151.61 -270.69)"/><path class="cls-16" d="M241.19,327.1s-.07,1.63-.2,4.19h0c.65-.68,1.23-3.4,1.54-6.52a2.72,2.72,0,0,1-1.08.71c-.09.53-.17,1.07-.26,1.62" transform="translate(-151.61 -270.69)"/><path class="cls-17" d="M239.8,326.94l1.39.16a9.55,9.55,0,0,1,5.34,2c2.35,2-.25,13.35-.25,13.35a3,3,0,0,1-3.28.26l-.05-10s-4.42,1.22-6.65-2.28.72-4.14.72-4.14Z" transform="translate(-151.61 -270.69)"/><path class="cls-9" d="M233.16,327l-.83.28c-1.73,5.11.76,6.91,4.93,6.51,0,0,.28,5.12.45,8.92.44.3,2.39.72,3.19-.13a89,89,0,0,0,1.33-10.41c0-1.27-.89-3.31-5.28-3.26l.09-2Z" transform="translate(-151.61 -270.69)"/><path class="cls-17" d="M233.16,327l-.83.28s-.11.29-.23.74a11,11,0,0,0,4.85.89l.09-2Z" transform="translate(-151.61 -270.69)"/><path class="cls-18" d="M240.41,307.61s.38,3.81-1.34,5.16c0,0-3.66.31-3.83-2.81-1.89-.24-.75-3.17.28-2.12l.15,1.09.53,0a10.41,10.41,0,0,1,.35-1.28,5.48,5.48,0,0,0,3.86,0" transform="translate(-151.61 -270.69)"/><path class="cls-19" d="M235.24,310a1.23,1.23,0,0,1-.66-2.1c.53,0,.69.66.69.66a.31.31,0,0,0-.42.29c0,.39.41.71.41.71Z" transform="translate(-151.61 -270.69)"/><path class="cls-18" d="M234.94,309.9a21.15,21.15,0,0,1,.16,4.14,4.41,4.41,0,0,0,2.79,0,10.38,10.38,0,0,0,.32-1.29,3,3,0,0,1-3-2.79,1.33,1.33,0,0,1-.3-.06" transform="translate(-151.61 -270.69)"/><path class="cls-19" d="M238,313.83c.06-.23.17-.63.25-1.08a3,3,0,0,1-3-2.79s-.35,3.61,2.72,3.87" transform="translate(-151.61 -270.69)"/><path class="cls-9" d="M240.44,308.75c2.29-2.12.7-3,.43-2.81-1.31-2.53-5.88-1.45-5.52.17-1.44-.29-1.23,1.14-.9,1.92.25-.4.67-.6,1.07-.19l.15,1.09.53,0a10.41,10.41,0,0,1,.35-1.28,5.48,5.48,0,0,0,3.86,0s0,.47,0,1.14" transform="translate(-151.61 -270.69)"/><path class="cls-6" d="M238,313.63l3.67,2.05c.67,3.08.28,6.64-.39,10.76a.36.36,0,0,1-.1.66s-3,1.39-8.86.17c.09-6-2.64-9.9-.35-11.75a17.63,17.63,0,0,1,3.14-1.87,4.32,4.32,0,0,0,2.89,0" transform="translate(-151.61 -270.69)"/><path class="cls-15" d="M234.42,327.62c-.65-.08-1.34-.19-2.09-.35.09-6-2.83-9.73-.54-11.59,3.17.29,3,8.52,2.63,11.94" transform="translate(-151.61 -270.69)"/><path class="cls-6" d="M230.65,325.12c.45-4.34,4.56-8,1.91-9.34s-5,8.22-4.14,9.62c.76,1.22,1.92.43,2.23-.28" transform="translate(-151.61 -270.69)"/><path class="cls-18" d="M232.08,324.07a28.14,28.14,0,0,0,5.29,2.12,1.88,1.88,0,0,1-.77,1.46s-6.76-1.15-7.73-2.14c-1.42-1.45.95-2.62,3.21-1.44" transform="translate(-151.61 -270.69)"/><path class="cls-19" d="M229.78,326a2.71,2.71,0,0,1-.91-.5c-1.42-1.44.94-2.6,3.2-1.43-1.85-.48-4.12.41-2.29,1.93" transform="translate(-151.61 -270.69)"/><path class="cls-18" d="M237.37,326.19l2.15.48a3.09,3.09,0,0,1-1.31,1.56,3.87,3.87,0,0,1-1.61-.58,2.11,2.11,0,0,0,.77-1.46" transform="translate(-151.61 -270.69)"/><path class="cls-19" d="M239.52,326.66l1.1.55a.45.45,0,0,1-.58.34,2.72,2.72,0,0,1-.91.89l-.92-.21a3,3,0,0,0,1.31-1.57" transform="translate(-151.61 -270.69)"/><path class="cls-19" d="M236.2,308.89a6.92,6.92,0,0,1,.44-1.05s2.22.93,3.77-.23a5.48,5.48,0,0,1-3.86,0,10.41,10.41,0,0,0-.35,1.28" transform="translate(-151.61 -270.69)"/><path class="cls-9" d="M237.71,342.7s-.72.72-.8,3a4.13,4.13,0,0,0,4.32.23,3,3,0,0,0-.31-2.32l0-1s-.76.92-3.19.13" transform="translate(-151.61 -270.69)"/><path class="cls-17" d="M243,342.75a2.48,2.48,0,0,0-.52,2.59H249s.9-3.34-2.72-2.85a3.25,3.25,0,0,1-3.28.26" transform="translate(-151.61 -270.69)"/><path class="cls-13" d="M247.47,321.89l-6.59,1.75a.29.29,0,0,0-.2.2l-1.17,4.8-3.52-.22-.07.19,0,.22.17.15,3.22.86h.14l6.87-1.7a.26.26,0,0,0,.2-.21l1.28-5.71a.28.28,0,0,0-.08-.26.27.27,0,0,0-.27-.07" transform="translate(-151.61 -270.69)"/><path class="cls-6" d="M244.09,325.06a.53.53,0,0,1,.72.53,1,1,0,0,1-.72.92.54.54,0,0,1-.73-.53,1,1,0,0,1,.73-.92" transform="translate(-151.61 -270.69)"/><path class="cls-6" d="M225.15,299h0l2.77-1.45a1,1,0,0,0,.49-.94l.34-8.54a3.88,3.88,0,0,0-1.76-3l-13.25-8.35a1.43,1.43,0,0,0-1.4-.23l-2.77,1.45h0l0,0h0l0,0h-.11l-.07.07h0l0,.06h0l0,0h0l0,.05h0v0h0v0h0l0,0h0v0h0l0,0h0v0h0v0h0v0h0v0h0v0h0v0h0v0h0v0h0v0h0v0l-.33,8.55a3.89,3.89,0,0,0,1.75,3l3.38,2.13,2,3.5,0,0,0,.05,0,0,0,0,0,.05,0,0,0,.05,0,0,0,0,0,0,0,0,0,0,0,0,0,0,0,0,0,0,0,0,0,0,0,0,0,0,0,0,0,0,0,0,0,0,0,0,0,0,0,0,0,0,0,0,0,0,0,0,0,0h0l0,0,0,0,0,0,0,0,0,0,0,0,0,0,0,0h0l0,0h.07l0,0h.65l2.2-.83,3.38,2.13,0,0h0l0,0h0l0,0h.06l0,0h0l.05,0,0,0h0l0,0h0l0,0h.13l0,0h.56l.07,0h.13Z" transform="translate(-151.61 -270.69)"/><path class="cls-20" d="M224.73,299.45l2.71-1.56a1,1,0,0,0,.46-1v-8.55a3.88,3.88,0,0,0-1.87-2.95l-13.56-7.83a1.46,1.46,0,0,0-1.41-.17L208.35,279a1,1,0,0,0-.46.95v8.56a3.9,3.9,0,0,0,1.87,2.95l3.46,2,2.16,3.42c.64,1,1.68,1.61,2.32,1.34l2.16-.92,3.46,2a1.46,1.46,0,0,0,1.41.17" transform="translate(-151.61 -270.69)"/><path class="cls-21" d="M209.76,279.15,223.32,287a3.9,3.9,0,0,1,1.87,2.95v8.56c0,1-.84,1.38-1.87.79l-3.46-2-2.16.92c-.64.27-1.68-.34-2.32-1.34l-2.16-3.42-3.46-2a3.9,3.9,0,0,1-1.87-2.95v-8.56c0-1,.84-1.38,1.87-.79" transform="translate(-151.61 -270.69)"/><path class="cls-13" d="M216.39,285.66l-1.24-.72v.54a.93.93,0,0,0-1.18,1,2.92,2.92,0,0,0,.4,1.39,4,4,0,0,0,1.44,1.54.91.91,0,0,1,.45.7c0,.25-.2.34-.45.2a1,1,0,0,1-.45-.72l-1.39-.8a3.62,3.62,0,0,0,1.18,2.39v.63l1.24.72V292a.93.93,0,0,0,1.25-1,3.74,3.74,0,0,0-1.83-2.88,1,1,0,0,1-.45-.72c0-.25.2-.33.45-.18a.91.91,0,0,1,.45.71l1.39.8a3.67,3.67,0,0,0-1.26-2.49Z" transform="translate(-151.61 -270.69)"/></g></svg>